<?xml version="1.0" encoding="UTF-8" standalone="no"?>
<!DOCTYPE svg PUBLIC "-//W3C//DTD SVG 1.1//EN" "http://www.w3.org/Graphics/SVG/1.1/DTD/svg11.dtd">
<svg width="100%" height="100%" viewBox="0 0 4096 4096" version="1.1" xmlns="http://www.w3.org/2000/svg" xmlns:xlink="http://www.w3.org/1999/xlink" xml:space="preserve" xmlns:serif="http://www.serif.com/" style="fill-rule:evenodd;clip-rule:evenodd;stroke-linejoin:round;stroke-miterlimit:2;">
    <g id="Background" transform="matrix(4,0,0,4,0,0)">
        <path d="M453.25,918.1C451.91,918.25 409.331,911.896 364.563,894.344C168.252,817.375 104.511,633.554 105.675,544.504C108.035,363.84 236.272,224.972 406.471,198.329C497.552,184.072 602.012,209.774 679.468,282.536C689.822,292.263 697.653,298.86 694.502,299.159C692.011,299.395 595.407,204.029 434.581,246.799C363.791,265.625 285.041,321.275 243.868,386.74C243.798,386.852 163.314,496.479 197.744,651.44C216.227,734.626 267.099,818.937 348.814,872.017C407.601,910.204 452.179,916.02 453.219,916.787C453.571,917.047 452.898,917.84 453.25,918.1Z" style="fill:rgb(3,114,185);"/>
        <path d="M584.822,109.226C584.816,109.142 583.997,107.301 586.535,107.865C627.038,116.865 670.436,129.612 720.69,159.167C806.06,209.374 850.566,280.922 850.821,281.282C898.32,348.315 920.449,439.333 919.761,480.502C917.768,599.677 860.009,675.322 856.003,681.148C835.144,711.487 800.576,744.577 783.155,757.031C733.557,792.489 633.324,857.612 479.611,817.072C423.852,802.367 364.593,763.724 329.767,725.344C325.155,720.261 331.452,724.182 331.577,724.294C392.841,778.792 509.49,814.904 626.53,765.573C747.515,714.578 791.133,628.242 806.986,590.701C814.533,572.829 858.126,469.599 821.098,348.618C760.991,152.229 589.843,111.535 584.822,109.226Z" style="fill:rgb(3,178,224);"/>
        <path d="M104.835,469.22C104.244,465.79 109.759,420.804 123.785,380.594C138.976,337.043 187.173,212.87 340.593,139.692C421.471,101.114 489.228,103.372 502.486,103.814C679.658,109.717 861.969,288.469 813.666,528.534C800.295,594.986 768.212,639.755 762.139,648.229C761.081,649.705 740.263,678.754 747.403,665.495C752.025,656.913 860.674,518.124 728.076,323.778C659.996,223.996 527.467,156.835 386.495,186.478C332.865,197.755 214.257,233.994 141.134,368.293C116.81,412.967 109.723,450.915 108.314,458.461C108.152,459.325 106.398,468.72 106.114,469.224C105.905,469.596 105.045,468.849 104.835,469.22Z" style="fill:rgb(4,196,215);"/>
        <path d="M803.48,800.481C750.269,856.826 612.982,946.326 466.587,912.085C466.077,911.965 357.308,894.909 277.943,791.161C188.034,673.629 177.541,506.956 257.145,386.237C258.543,384.117 270.315,364.116 269.554,370.498C269.491,371.024 189.587,485.633 258.096,631.682C261.334,638.585 323.098,794.619 496.448,835.726C661.921,874.965 812.245,783.301 876.952,668.76C880.798,661.952 902.744,623.103 914.3,578.438C915.996,571.88 919.254,549.828 919.573,549.689C921.218,548.972 920.144,552.237 920.133,555.694C920.112,562.783 913.762,604.266 902.142,639.383C875.308,720.472 835.042,767.741 803.48,800.481Z" style="fill:rgb(3,165,230);"/>
        <path d="M505.6,477.345C502.061,481.9 458.815,520.835 436.126,542.091C434.389,543.718 417.614,559.432 414.156,562.145C392.64,546.332 352.361,519.084 350.808,517.256C349.03,515.163 324.882,423.614 322.727,415.444C311.149,371.552 307.842,366.49 312.4,368.785C316.845,371.023 318.6,371.907 366.659,399.218C373.633,403.181 501.916,474.698 505.6,477.345Z" style="fill:rgb(71,189,245);"/>
        <path d="M518.425,477.386C520.949,475.573 711.454,368.423 712.505,368.382C715.703,368.258 713.333,370.561 697.357,429.46C674.253,514.64 675.553,515.529 672.182,518.123C670.289,519.579 616.026,557.436 612.237,560.162C611.565,560.645 610.676,560.89 610.178,561.551C609.971,561.825 610.645,562.272 610.439,562.546L609.818,562.151C609.182,561.617 608.427,560.821 608.312,560.699C605.639,557.881 567.039,522.847 563.433,519.575C521.817,481.804 521.43,481.3 518.425,477.386Z" style="fill:rgb(72,187,244);"/>
        <path d="M394.275,580.255C395.447,580.771 395.207,581.328 396.5,581.234C398.806,581.067 425.415,593.01 479.597,615.267C480.724,615.73 490.106,619.584 493.613,621.227C496.376,622.522 496.832,624.61 500.803,622.239C501.165,622.655 502.264,623.918 504.839,627.826C500.324,632.031 456.841,672.53 448.109,680.072C432.663,693.414 419.415,707.851 417.945,706.071C417.223,705.196 372.929,606.801 371.938,604.316C370.428,600.534 373.012,600.036 394.275,580.255Z" style="fill:rgb(7,83,145);"/>
        <path d="M628.672,579.323C633.306,583.469 652.272,600.808 652.484,601.506C653.046,603.353 652.049,603.632 640.768,629.622C627.203,660.87 610.819,696.555 608.159,702.349C606.638,705.662 606.372,707.804 603.637,705.341C566.258,671.681 526.854,634.968 520.228,628.794C520.555,628.245 521.317,628.05 521.644,627.5C522.121,626.698 521.531,626.435 522.57,625.555C525.054,623.455 526.039,622.622 559.643,608.854C571.697,603.915 608.092,588.791 612.303,587.041C626.258,581.242 626.374,581.517 627.5,580.841C628.048,580.512 628.124,579.652 628.672,579.323Z" style="fill:rgb(9,83,147);"/>
        <path d="M505.6,477.345C506.396,478.43 506.428,478.405 506.46,478.516C506.798,479.696 506.561,561.302 506.541,568.5C506.379,624.233 507.38,624.776 504.839,627.826C502.264,623.918 501.165,622.655 500.803,622.239C500.638,622.114 500.292,621.706 499.162,620.987C484.172,611.455 428.692,571.106 414.156,562.145C417.614,559.432 434.389,543.718 436.126,542.091C458.815,520.835 502.061,481.9 505.6,477.345Z" style="fill:rgb(5,113,186);"/>
        <path d="M518.425,477.386C521.43,481.3 521.817,481.804 563.433,519.575C567.039,522.847 605.639,557.881 608.312,560.699C608.427,560.821 609.182,561.617 609.818,562.151C599.335,568.268 566.357,592.018 562.636,594.698C559.244,597.141 521.278,624.484 519.5,624.19C519.282,624.154 520.071,623.891 518.896,621.5C518.666,621.03 517.918,620.969 517.687,620.499C517.64,614.259 517.432,586.595 517.477,542.5C517.54,480.492 516.487,480.083 518.425,477.386Z" style="fill:rgb(5,114,187);"/>
        <path d="M609.818,562.151L610.439,562.546C611.837,563.951 613.603,565.724 628.672,579.323C628.124,579.652 628.048,580.512 627.5,580.841C626.374,581.517 626.258,581.242 612.303,587.041C608.092,588.791 571.697,603.915 559.643,608.854C526.039,622.622 525.054,623.455 522.57,625.555C521.531,626.435 522.121,626.698 521.644,627.5C521.317,628.05 520.555,628.245 520.228,628.794C517.107,625.42 517.69,625.057 517.687,620.499C517.918,620.969 518.666,621.03 518.896,621.5C520.071,623.891 519.282,624.154 519.5,624.19C521.278,624.484 559.244,597.141 562.636,594.698C566.357,592.018 599.335,568.268 609.818,562.151Z" style="fill:rgb(17,60,116);"/>
        <path d="M414.156,562.145C428.692,571.106 484.172,611.455 499.162,620.987C500.292,621.706 500.638,622.114 500.803,622.239C496.832,624.61 496.376,622.522 493.613,621.227C490.106,619.584 480.724,615.73 479.597,615.267C425.415,593.01 398.806,581.067 396.5,581.234C395.207,581.328 395.447,580.771 394.275,580.255C400.727,574.53 412.574,563.604 414.156,562.145Z" style="fill:rgb(19,59,114);"/>
    </g>
</svg>
